# Blender v2.93.4 OBJ File: ''
# www.blender.org
mtllib tree03leaves.mtl
o low_poly_tree
v -0.467030 10.965833 -0.288067
v -0.172599 10.965833 -0.520873
v -0.603356 12.532379 -0.199928
v -0.333685 12.532379 -0.540983
v -0.748613 14.098927 -0.065493
v -0.531372 14.098927 -0.531369
v -0.748613 14.098927 -0.065493
v 0.000000 14.098927 0.000002
v -0.531372 14.098927 -0.531369
v -0.542933 10.965833 0.079530
v -0.590710 12.532379 0.234676
v -0.615570 14.098927 0.431029
v -0.615570 14.098927 0.431029
v -0.364791 10.965833 0.409914
v -0.301665 12.532379 0.559474
v -0.194495 14.098927 0.725869
v -0.194495 14.098927 0.725869
v -0.015960 10.965833 0.548496
v 0.128533 12.532379 0.622488
v 0.317586 14.098927 0.681068
v 0.317586 14.098927 0.681068
v 0.340340 10.965833 0.430432
v 0.498589 12.532379 0.394235
v 0.681066 14.098927 0.317588
v 0.681066 14.098927 0.317588
v 0.537390 10.965833 0.110964
v 0.635349 12.532379 -0.018485
v 0.725867 14.098927 -0.194493
v 0.725867 14.098927 -0.194493
v 0.482990 10.965833 -0.260424
v 0.474823 12.532379 -0.422554
v 0.431027 14.098927 -0.615568
v 0.431027 14.098927 -0.615568
v 0.202593 10.965833 -0.509956
v 0.092121 12.532379 -0.628905
v -0.065495 14.098927 -0.748611
v -0.065495 14.098927 -0.748611
v 3.245334 12.842951 -1.346753
v 3.697770 12.770684 -0.029730
v 1.824654 10.987537 0.269038
v 2.567531 12.788167 -2.600871
v 1.445444 11.039252 -1.075044
v 1.340438 12.847144 -3.239169
v -0.011598 12.782954 -3.636321
v 0.754508 10.813251 -1.829717
v -1.314360 12.877703 -3.182619
v 0.001962 10.981571 -1.847971
v -2.642509 12.743533 -2.610116
v -0.670593 11.077267 -1.643630
v -3.137196 12.890948 -1.313115
v -1.594195 10.971720 -0.952600
v -3.537436 12.831075 0.004552
v -3.032808 12.944093 1.222333
v -1.857948 10.897750 0.471752
v -2.463739 12.857812 2.463185
v -1.376482 12.789866 3.350530
v -1.340659 10.919620 1.341043
v -0.003550 12.872430 3.454458
v -0.704182 11.008459 1.686876
v 1.293527 12.888027 3.153115
v 0.459597 10.950413 1.816614
v 2.616677 12.758322 2.596563
v 3.311103 12.810082 1.361498
v 1.211369 11.143169 1.227421
v 1.654561 15.746798 -4.141508
v 3.187427 15.736475 -3.263624
v -0.054839 15.740609 -4.520672
v -1.687593 15.766653 -3.915142
v -3.066056 15.765386 -2.980383
v -4.176925 15.742886 -1.670208
v -4.768857 15.715529 0.049032
v -3.985680 15.759012 1.714897
v -3.272876 15.724541 3.345170
v -1.716966 15.731198 4.282731
v 0.056266 15.746768 4.459717
v 1.821694 15.729120 4.261614
v 3.231956 15.741108 3.154241
v 3.964763 15.766318 1.576458
v 4.456007 15.747143 -0.056350
v 4.165705 15.739510 -1.784571
v -2.604727 19.125824 -4.081649
v -0.880291 19.154852 -5.032908
v -4.300168 19.171068 -3.026946
v -4.785651 19.132296 -1.059585
v -4.839546 19.133686 0.854175
v -4.015378 19.117506 2.566169
v -2.649660 19.103539 3.805039
v -1.066130 19.135071 4.810400
v 0.858012 19.136797 4.867977
v 2.592544 19.123196 4.060718
v 4.117700 19.146183 2.887913
v 4.649025 19.116962 1.023475
v 5.007394 19.152058 -0.876841
v 4.320454 19.155796 -2.743669
v 2.864661 19.142021 -4.087187
v 1.098537 19.148829 -4.932988
v -4.332186 22.470295 -0.231458
v -4.050812 22.515764 -1.944617
v -4.173882 22.495689 1.469310
v -3.445320 22.553173 3.079438
v -1.846313 22.454466 3.866163
v -0.261824 22.562611 4.645764
v 1.526006 22.552614 4.359696
v 2.951034 22.493980 3.289391
v 4.161582 22.552538 2.003597
v 4.333503 22.470682 0.231593
v 4.168495 22.494040 -1.467658
v 3.337248 22.512148 -2.990440
v 1.980219 22.537962 -4.117673
v 0.237606 22.488979 -4.395644
v -1.564083 22.590847 -4.484472
v -3.161401 22.590958 -3.544858
v -2.545736 25.400824 2.340829
v -3.242564 25.395174 1.185198
v -1.578165 25.526508 3.324116
v -0.171498 25.486900 3.607220
v 1.172124 25.365084 3.191666
v 2.208950 25.274561 2.331342
v 3.269372 25.489567 1.542140
v 3.630890 25.491360 0.186739
v 3.148102 25.339334 -1.163807
v 2.584500 25.423655 -2.364665
v 1.380075 25.314451 -3.012472
v 0.165336 25.445059 -3.541096
v -1.240288 25.539047 -3.485952
v -2.373276 25.431892 -2.598489
v -3.053886 25.342678 -1.406194
v -3.469219 25.407991 -0.148202
v -1.281794 27.484613 1.555315
v -1.723153 27.159336 0.185652
v -0.060767 27.179459 1.739856
v 0.666152 27.414867 1.839888
v 1.431359 27.294138 1.166194
v 2.040133 27.527327 -0.195875
v -1.454382 27.325788 -1.185286
v 1.152811 27.270685 -1.419731
v -0.192161 27.393595 -1.924934
v -0.000691 10.136440 -0.001063
v 0.000095 28.320637 0.000853
vt 0.111111 0.777778
vt 0.111111 0.888889
vt 0.000000 0.888889
vt 0.000000 0.777778
vt 0.111111 1.000000
vt 0.000000 1.000000
vt 0.883022 0.821394
vt 0.500000 0.500000
vt 1.000000 0.500000
vt 0.222222 0.777778
vt 0.222222 0.888889
vt 0.222222 1.000000
vt 0.586824 0.992404
vt 0.333333 0.777778
vt 0.333333 0.888889
vt 0.333333 1.000000
vt 0.250000 0.933013
vt 0.444444 0.777778
vt 0.444444 0.888889
vt 0.444444 1.000000
vt 0.030154 0.671010
vt 0.555556 0.777778
vt 0.555556 0.888889
vt 0.555556 1.000000
vt 0.030154 0.328990
vt 0.666667 0.777778
vt 0.666667 0.888889
vt 0.666667 1.000000
vt 0.250000 0.066987
vt 0.777778 0.777778
vt 0.777778 0.888889
vt 0.777778 1.000000
vt 0.586824 0.007596
vt 0.888889 0.777778
vt 0.888889 0.888889
vt 0.888889 1.000000
vt 0.883022 0.178606
vt 1.000000 0.777778
vt 1.000000 0.888889
vt 1.000000 1.000000
vt 0.062500 0.250000
vt 0.000000 0.250000
vt 0.000000 0.125000
vt 0.125000 0.250000
vt 0.062500 0.125000
vt 0.187500 0.250000
vt 0.125000 0.125000
vt 0.250000 0.250000
vt 0.187500 0.125000
vt 0.312500 0.250000
vt 0.250000 0.125000
vt 0.375000 0.250000
vt 0.312500 0.125000
vt 0.437500 0.250000
vt 0.375000 0.125000
vt 0.500000 0.250000
vt 0.437500 0.125000
vt 0.562500 0.250000
vt 0.500000 0.125000
vt 0.625000 0.250000
vt 0.562500 0.125000
vt 0.687500 0.250000
vt 0.625000 0.125000
vt 0.750000 0.250000
vt 0.687500 0.125000
vt 0.812500 0.250000
vt 0.750000 0.125000
vt 0.875000 0.250000
vt 0.812500 0.125000
vt 0.937500 0.250000
vt 0.875000 0.125000
vt 1.000000 0.250000
vt 0.937500 0.125000
vt 0.062500 0.375000
vt 0.000000 0.375000
vt 0.125000 0.375000
vt 0.187500 0.375000
vt 0.250000 0.375000
vt 0.312500 0.375000
vt 0.375000 0.375000
vt 0.437500 0.375000
vt 0.500000 0.375000
vt 0.562500 0.375000
vt 0.625000 0.375000
vt 0.687500 0.375000
vt 0.750000 0.375000
vt 0.812500 0.375000
vt 0.875000 0.375000
vt 0.937500 0.375000
vt 1.000000 0.375000
vt 0.062500 0.500000
vt 0.000000 0.500000
vt 0.125000 0.500000
vt 0.187500 0.500000
vt 0.250000 0.500000
vt 0.312500 0.500000
vt 0.375000 0.500000
vt 0.437500 0.500000
vt 0.500000 0.500000
vt 0.562500 0.500000
vt 0.625000 0.500000
vt 0.687500 0.500000
vt 0.750000 0.500000
vt 0.812500 0.500000
vt 0.875000 0.500000
vt 0.937500 0.500000
vt 1.000000 0.500000
vt 0.062500 0.625000
vt 0.000000 0.625000
vt 0.125000 0.625000
vt 0.187500 0.625000
vt 0.250000 0.625000
vt 0.312500 0.625000
vt 0.375000 0.625000
vt 0.437500 0.625000
vt 0.500000 0.625000
vt 0.562500 0.625000
vt 0.625000 0.625000
vt 0.687500 0.625000
vt 0.750000 0.625000
vt 0.812500 0.625000
vt 0.875000 0.625000
vt 0.937500 0.625000
vt 1.000000 0.625000
vt 0.062500 0.750000
vt 0.000000 0.750000
vt 0.125000 0.750000
vt 0.187500 0.750000
vt 0.250000 0.750000
vt 0.312500 0.750000
vt 0.375000 0.750000
vt 0.437500 0.750000
vt 0.500000 0.750000
vt 0.562500 0.750000
vt 0.625000 0.750000
vt 0.687500 0.750000
vt 0.750000 0.750000
vt 0.812500 0.750000
vt 0.875000 0.750000
vt 0.937500 0.750000
vt 1.000000 0.750000
vt 0.062500 0.875000
vt 0.000000 0.875000
vt 0.125000 0.875000
vt 0.062500 0.875000
vt 0.062500 0.750000
vt 0.187500 0.875000
vt 0.125000 0.875000
vt 0.250000 0.875000
vt 0.312500 0.875000
vt 0.375000 0.875000
vt 0.312500 0.875000
vt 0.312500 0.750000
vt 0.437500 0.875000
vt 0.375000 0.875000
vt 0.500000 0.875000
vt 0.437500 0.875000
vt 0.437500 0.750000
vt 0.562500 0.875000
vt 0.500000 0.875000
vt 0.625000 0.875000
vt 0.562500 0.875000
vt 0.562500 0.750000
vt 0.687500 0.875000
vt 0.625000 0.875000
vt 0.750000 0.875000
vt 0.687500 0.875000
vt 0.687500 0.750000
vt 0.812500 0.875000
vt 0.750000 0.875000
vt 0.875000 0.875000
vt 0.812500 0.875000
vt 0.812500 0.750000
vt 0.937500 0.875000
vt 0.875000 0.875000
vt 1.000000 0.875000
vt 0.937500 0.875000
vt 0.937500 0.750000
vt 0.000000 0.000000
vt 0.000000 1.000000
vt 0.125000 0.125000
vt 0.062500 0.125000
vt 0.062500 0.000000
vt 0.062500 1.000000
vt 0.062500 0.875000
vt 0.125000 0.000000
vt 0.125000 1.000000
vt 0.187500 0.000000
vt 0.187500 1.000000
vt 0.250000 0.000000
vt 0.250000 1.000000
vt 0.312500 0.000000
vt 0.312500 1.000000
vt 0.312500 0.875000
vt 0.437500 0.125000
vt 0.375000 0.125000
vt 0.375000 0.000000
vt 0.375000 1.000000
vt 0.437500 0.000000
vt 0.437500 1.000000
vt 0.562500 0.125000
vt 0.500000 0.125000
vt 0.500000 0.000000
vt 0.500000 1.000000
vt 0.562500 0.000000
vt 0.562500 1.000000
vt 0.625000 0.000000
vt 0.625000 1.000000
vt 0.687500 0.000000
vt 0.687500 1.000000
vt 0.812500 0.125000
vt 0.750000 0.125000
vt 0.750000 0.000000
vt 0.750000 1.000000
vt 0.812500 0.000000
vt 0.812500 1.000000
vt 0.875000 0.000000
vt 0.875000 1.000000
vt 1.000000 0.125000
vt 0.937500 0.125000
vt 0.937500 0.000000
vt 0.937500 1.000000
vt 0.937500 0.875000
vt 0.125000 0.125000
vt 0.125000 0.250000
vt 0.062500 0.125000
vt 0.437500 0.125000
vt 0.437500 0.250000
vt 0.375000 0.125000
vt 0.562500 0.125000
vt 0.562500 0.250000
vt 0.500000 0.125000
vt 0.812500 0.125000
vt 0.812500 0.250000
vt 0.750000 0.125000
vt 1.000000 0.125000
vt 1.000000 0.250000
vt 0.937500 0.125000
vn -0.7122 -0.0524 -0.7001
vn -0.8541 -0.0698 -0.5154
vn 0.0000 1.0000 0.0000
vn -0.9955 -0.0524 -0.0785
vn -0.9856 -0.0698 0.1542
vn -0.8131 -0.0524 0.5798
vn -0.6559 -0.0698 0.7516
vn -0.2502 -0.0524 0.9668
vn -0.0193 -0.0698 0.9974
vn 0.4298 -0.0524 0.9014
vn 0.6263 -0.0698 0.7764
vn 0.9086 -0.0524 0.4143
vn 0.9789 -0.0698 0.1922
vn 0.9623 -0.0524 -0.2667
vn 0.8734 -0.0698 -0.4820
vn 0.5658 -0.0524 -0.8229
vn 0.3592 -0.0698 -0.9306
vn -0.0956 -0.0524 -0.9940
vn -0.3230 -0.0698 -0.9438
vn 0.6436 -0.7197 -0.2606
vn 0.6464 -0.6931 -0.3191
vn 0.2886 -0.7279 -0.6220
vn 0.2517 -0.5992 -0.7600
vn -0.2857 -0.6763 -0.6790
vn -0.2319 -0.6786 -0.6969
vn -0.7421 -0.6362 -0.2107
vn -0.7309 -0.6347 -0.2508
vn -0.7455 -0.5604 0.3609
vn -0.7691 -0.5567 0.3140
vn -0.5129 -0.6329 0.5799
vn -0.0139 -0.6853 0.7282
vn 0.1861 -0.6109 0.7695
vn 0.2516 -0.6206 0.7427
vn 0.5823 -0.7573 0.2957
vn 0.6914 -0.6908 0.2117
vn 0.3727 -0.6539 -0.6585
vn 0.1697 -0.6335 -0.7549
vn -0.2645 -0.6798 -0.6841
vn -0.4436 -0.6117 -0.6550
vn -0.6402 -0.5343 -0.5520
vn -0.7486 -0.6067 -0.2674
vn -0.6197 -0.7209 0.3102
vn -0.7610 -0.5638 0.3208
vn -0.3731 -0.6865 0.6241
vn -0.0622 -0.7245 0.6865
vn 0.0820 -0.6140 0.7850
vn 0.4581 -0.6770 0.5760
vn 0.6497 -0.7024 0.2906
vn 0.7736 -0.5867 0.2396
vn 0.7888 -0.6007 -0.1299
vn 0.6409 -0.6408 -0.4226
vn -0.3296 -0.7127 -0.6192
vn -0.4501 -0.5549 -0.6997
vn -0.6554 -0.7344 -0.1762
vn -0.7442 -0.6677 -0.0205
vn -0.6520 -0.6932 0.3073
vn -0.5052 -0.6655 0.5494
vn -0.4497 -0.5221 0.7247
vn -0.0217 -0.6654 0.7462
vn 0.3078 -0.6728 0.6727
vn 0.4975 -0.5905 0.6354
vn 0.6735 -0.7108 0.2031
vn 0.8235 -0.5485 0.1452
vn 0.6978 -0.6682 -0.2581
vn 0.4826 -0.7079 -0.5157
vn 0.3236 -0.6569 -0.6810
vn 0.0359 -0.6604 -0.7501
vn -0.7827 -0.6054 -0.1446
vn -0.8412 -0.5338 0.0863
vn -0.7935 -0.4785 0.3761
vn -0.3654 -0.6559 0.6605
vn -0.3801 -0.4096 0.8293
vn 0.1222 -0.6071 0.7851
vn 0.4448 -0.6393 0.6272
vn 0.6405 -0.5033 0.5801
vn 0.7568 -0.6454 0.1032
vn 0.8385 -0.5377 -0.0888
vn 0.7351 -0.5416 -0.4077
vn 0.5238 -0.5583 -0.6434
vn 0.1410 -0.6159 -0.7751
vn 0.0207 -0.4235 -0.9057
vn -0.4056 -0.6002 -0.6894
vn -0.6520 -0.6485 -0.3929
vn -0.8144 -0.3068 0.4926
vn -0.6862 -0.1964 0.7004
vn -0.1924 -0.3871 0.9017
vn 0.2335 -0.4185 0.8777
vn 0.5596 -0.4140 0.7180
vn 0.5651 0.1735 0.8066
vn 0.9185 -0.3106 0.2446
vn 0.8531 -0.4560 -0.2536
vn 0.8885 -0.1639 -0.4285
vn 0.4595 -0.4172 -0.7841
vn 0.3852 -0.1203 -0.9149
vn -0.0541 -0.2405 -0.9691
vn -0.5348 -0.4195 -0.7334
vn -0.7817 -0.4026 -0.4763
vn -0.9382 -0.1714 -0.3008
vn -0.9431 -0.2929 0.1575
vn -0.7338 0.6751 0.0761
vn 0.1113 0.5880 -0.8012
vn 0.0536 0.6649 0.7450
vn -0.3168 0.7120 0.6266
vn 0.6034 0.5374 0.5891
vn 0.6669 0.6544 -0.3563
vn 0.6037 0.6959 0.3890
vn -0.5007 0.6605 -0.5595
vn 0.6119 0.5579 -0.5606
vn 0.7531 0.6263 0.2017
vn 0.3250 0.6195 -0.7145
vn -0.6601 0.7067 -0.2546
vn -0.3831 0.7119 -0.5885
vn 0.5553 0.5656 0.6097
vn -0.7721 0.6311 -0.0747
vn -0.1127 0.7395 0.6636
vn 0.4363 -0.8859 -0.1572
vn -0.5600 0.8284 -0.0163
vn 0.8367 0.5448 0.0560
vn 0.0748 0.7612 -0.6442
vn 0.4454 -0.8838 -0.1431
vn 0.1241 0.8276 0.5474
vn -0.1898 -0.8927 -0.4088
vn -0.3277 0.7951 0.5103
vn -0.2479 -0.8808 -0.4034
vn 0.3918 0.8737 0.2884
vn -0.2126 -0.8828 -0.4189
vn 0.4927 0.6504 -0.5782
vn -0.6982 0.5811 0.4182
vn 0.3702 0.8739 0.3151
vn -0.4028 -0.9071 -0.1217
vn -0.7069 0.6101 -0.3579
vn -0.3614 0.7014 -0.6144
vn 0.2988 0.8672 -0.3985
vn -0.3229 -0.9216 0.2154
vn 0.7717 0.5397 -0.3366
vn -0.1036 -0.9006 0.4221
vn 0.2443 0.8640 -0.4403
vn -0.0924 -0.8998 0.4264
vn -0.7144 0.6879 0.1281
vn 0.3651 0.6331 -0.6826
vn -0.2779 0.8761 -0.3940
vn 0.4347 -0.8578 0.2741
vn 0.4135 0.5692 0.7107
vn 0.3489 -0.8638 0.3636
vn -0.5595 0.8288 -0.0091
vn 0.6867 0.6730 -0.2750
vn 0.2888 0.5757 0.7649
vn 0.6744 -0.7057 -0.2174
vn 0.7263 0.6846 -0.0611
vn 0.6975 -0.5329 -0.4790
vn -0.1391 -0.6982 -0.7022
vn -0.3001 -0.6795 -0.6695
vn -0.3452 -0.7419 -0.5748
vn -0.6181 0.5764 0.5345
vn -0.7235 -0.6693 -0.1687
vn -0.7115 0.5990 -0.3673
vn -0.6649 -0.6234 0.4114
vn -0.2573 -0.7096 0.6559
vn -0.1157 -0.6602 0.7421
vn 0.0126 0.6397 -0.7685
vn 0.5040 -0.7701 0.3911
vn 0.5348 -0.7104 0.4576
vn 0.3277 0.6191 -0.7137
vn 0.9276 0.2127 -0.3070
vn 0.7931 0.4140 -0.4467
vn 0.4541 0.2747 -0.8476
vn 0.2352 0.4323 -0.8705
vn -0.3117 0.1810 -0.9328
vn -0.3924 0.4413 -0.8070
vn -0.9241 0.1122 -0.3652
vn -0.8918 0.3746 -0.2538
vn -0.9243 0.0176 0.3814
vn -0.8094 0.4289 0.4010
vn -0.5668 0.3922 0.7245
vn -0.0859 0.1990 0.9762
vn 0.2115 0.3112 0.9265
vn 0.3808 0.4716 0.7953
vn 0.8338 0.2725 0.4802
vn 0.8830 0.4070 0.2339
vn 0.4202 0.5426 -0.7274
vn 0.1762 0.5681 -0.8038
vn -0.3069 0.4355 -0.8463
vn -0.4717 0.5427 -0.6949
vn -0.5900 0.6424 -0.4892
vn -0.6921 0.6850 -0.2274
vn -0.8428 0.3745 0.3865
vn -0.6708 0.6748 0.3076
vn -0.4218 0.5814 0.6958
vn -0.0901 0.5047 0.8586
vn 0.0914 0.6471 0.7569
vn 0.5238 0.5224 0.6728
vn 0.8247 0.4100 0.3896
vn 0.7563 0.6161 0.2203
vn 0.7958 0.5901 -0.1363
vn 0.6809 0.5766 -0.4516
vn -0.3946 0.5987 -0.6971
vn -0.3256 0.7646 -0.5562
vn -0.8140 0.5489 -0.1901
vn -0.7330 0.6799 -0.0211
vn -0.7312 0.5809 0.3575
vn -0.5501 0.5674 0.6128
vn -0.3823 0.7197 0.5796
vn -0.0232 0.6554 0.7549
vn 0.3316 0.6304 0.7019
vn 0.4174 0.7181 0.5569
vn 0.7957 0.5651 0.2179
vn 0.6681 0.7309 0.1395
vn 0.6707 0.6999 -0.2454
vn 0.5314 0.6154 -0.5822
vn 0.3230 0.6695 -0.6690
vn 0.0383 0.6955 -0.7175
vn -0.7997 0.5891 -0.1157
vn -0.7767 0.6267 0.0629
vn -0.6657 0.6931 0.2765
vn -0.3456 0.5368 0.7697
vn -0.3244 0.7675 0.5529
vn 0.1239 0.6477 0.7518
vn 0.5127 0.5586 0.6520
vn 0.4819 0.7286 0.4868
usemtl Mat_1
s off
f 1/1/1 3/2/1 4/3/1 2/4/1
f 3/2/2 5/5/2 6/6/2 4/3/2
f 7/7/3 8/8/3 9/9/3
f 10/10/4 11/11/4 3/2/4 1/1/4
f 11/11/5 12/12/5 5/5/5 3/2/5
f 13/13/3 8/8/3 7/7/3
f 14/14/6 15/15/6 11/11/6 10/10/6
f 15/15/7 16/16/7 12/12/7 11/11/7
f 17/17/3 8/8/3 13/13/3
f 18/18/8 19/19/8 15/15/8 14/14/8
f 19/19/9 20/20/9 16/16/9 15/15/9
f 21/21/3 8/8/3 17/17/3
f 22/22/10 23/23/10 19/19/10 18/18/10
f 23/23/11 24/24/11 20/20/11 19/19/11
f 25/25/3 8/8/3 21/21/3
f 26/26/12 27/27/12 23/23/12 22/22/12
f 27/27/13 28/28/13 24/24/13 23/23/13
f 29/29/3 8/8/3 25/25/3
f 30/30/14 31/31/14 27/27/14 26/26/14
f 31/31/15 32/32/15 28/28/15 27/27/15
f 33/33/3 8/8/3 29/29/3
f 34/34/16 35/35/16 31/31/16 30/30/16
f 35/35/17 36/36/17 32/32/17 31/31/17
f 37/37/3 8/8/3 33/33/3
f 2/38/18 4/39/18 35/35/18 34/34/18
f 4/39/19 6/40/19 36/36/19 35/35/19
f 9/9/3 8/8/3 37/37/3
usemtl Mat
f 38/41/20 39/42/20 40/43/20
f 41/44/21 38/41/21 42/45/21
f 43/46/22 41/44/22 42/47/22
f 44/48/23 43/46/23 45/49/23
f 46/50/24 44/48/24 47/51/24
f 48/52/25 46/50/25 49/53/25
f 50/54/26 48/52/26 51/55/26
f 52/56/27 50/54/27 51/57/27
f 53/58/28 52/56/28 54/59/28
f 55/60/29 53/58/29 54/61/29
f 56/62/30 55/60/30 57/63/30
f 58/64/31 56/62/31 59/65/31
f 60/66/32 58/64/32 61/67/32
f 62/68/33 60/66/33 61/69/33
f 63/70/34 62/68/34 64/71/34
f 39/72/35 63/70/35 40/73/35
f 65/74/36 66/75/36 39/42/36
f 67/76/37 65/74/37 38/41/37
f 68/77/38 67/76/38 41/44/38
f 69/78/39 68/77/39 43/46/39
f 70/79/40 69/78/40 44/48/40
f 71/80/41 70/79/41 46/50/41
f 72/81/42 71/80/42 48/52/42
f 73/82/43 72/81/43 50/54/43
f 74/83/44 73/82/44 52/56/44
f 75/84/45 74/83/45 53/58/45
f 76/85/46 75/84/46 55/60/46
f 77/86/47 76/85/47 56/62/47
f 78/87/48 77/86/48 58/64/48
f 79/88/49 78/87/49 60/66/49
f 80/89/50 79/88/50 62/68/50
f 66/90/51 80/89/51 63/70/51
f 81/91/52 82/92/52 66/75/52
f 83/93/53 81/91/53 65/74/53
f 84/94/54 83/93/54 67/76/54
f 85/95/55 84/94/55 68/77/55
f 86/96/56 85/95/56 69/78/56
f 87/97/57 86/96/57 70/79/57
f 88/98/58 87/97/58 71/80/58
f 89/99/59 88/98/59 72/81/59
f 90/100/60 89/99/60 73/82/60
f 91/101/61 90/100/61 74/83/61
f 92/102/62 91/101/62 75/84/62
f 93/103/63 92/102/63 76/85/63
f 94/104/64 93/103/64 77/86/64
f 95/105/65 94/104/65 78/87/65
f 96/106/66 95/105/66 79/88/66
f 82/107/67 96/106/67 80/89/67
f 97/108/68 98/109/68 82/92/68
f 99/110/69 97/108/69 81/91/69
f 100/111/70 99/110/70 83/93/70
f 101/112/71 100/111/71 84/94/71
f 102/113/72 101/112/72 85/95/72
f 103/114/73 102/113/73 86/96/73
f 104/115/74 103/114/74 87/97/74
f 105/116/75 104/115/75 88/98/75
f 106/117/76 105/116/76 89/99/76
f 107/118/77 106/117/77 90/100/77
f 108/119/78 107/118/78 91/101/78
f 109/120/79 108/119/79 92/102/79
f 110/121/80 109/120/80 93/103/80
f 111/122/81 110/121/81 94/104/81
f 112/123/82 111/122/82 95/105/82
f 98/124/83 112/123/83 96/106/83
f 113/125/84 114/126/84 98/109/84
f 115/127/85 113/125/85 97/108/85
f 116/128/86 115/127/86 99/110/86
f 117/129/87 116/128/87 100/111/87
f 118/130/88 117/129/88 101/112/88
f 119/131/89 118/130/89 102/113/89
f 120/132/90 119/131/90 103/114/90
f 121/133/91 120/132/91 104/115/91
f 122/134/92 121/133/92 105/116/92
f 123/135/93 122/134/93 106/117/93
f 124/136/94 123/135/94 107/118/94
f 125/137/95 124/136/95 108/119/95
f 126/138/96 125/137/96 109/120/96
f 127/139/97 126/138/97 110/121/97
f 128/140/98 127/139/98 111/122/98
f 114/141/99 128/140/99 112/123/99
f 129/142/100 130/143/100 114/126/100
f 110/144/101 126/145/101 109/146/101
f 131/147/102 129/148/102 115/127/102
f 132/149/103 131/147/103 116/128/103
f 133/150/104 132/149/104 117/129/104
f 108/151/105 124/152/105 107/153/105
f 134/154/106 133/155/106 119/131/106
f 126/156/107 135/157/107 125/158/107
f 136/159/108 134/160/108 121/133/108
f 120/161/109 134/162/109 119/163/109
f 137/164/110 136/165/110 123/135/110
f 128/166/111 130/167/111 127/168/111
f 135/169/112 137/170/112 125/137/112
f 118/171/113 133/172/113 117/173/113
f 130/174/114 135/175/114 127/139/114
f 116/176/115 131/177/115 115/178/115
f 42/45/116 40/43/116 138/179/116
f 139/180/117 130/143/117 129/142/117
f 106/181/118 122/182/118 105/183/118
f 111/184/119 127/185/119 110/144/119
f 45/49/120 42/47/120 138/186/120
f 139/187/121 129/148/121 131/147/121
f 47/51/122 45/49/122 138/188/122
f 139/189/123 131/147/123 132/149/123
f 49/53/124 47/51/124 138/190/124
f 139/191/125 132/149/125 133/150/125
f 51/55/126 49/53/126 138/192/126
f 109/193/127 125/194/127 108/151/127
f 113/195/128 129/196/128 114/197/128
f 139/198/129 133/155/129 134/154/129
f 54/59/130 51/57/130 138/199/130
f 127/200/131 135/157/131 126/156/131
f 112/201/132 128/202/132 111/203/132
f 139/204/133 134/160/133 136/159/133
f 57/63/134 54/61/134 138/205/134
f 121/206/135 134/162/135 120/161/135
f 59/65/136 57/63/136 138/207/136
f 139/208/137 136/165/137 137/164/137
f 61/67/138 59/65/138 138/209/138
f 114/210/139 130/167/139 128/166/139
f 124/211/140 137/212/140 123/213/140
f 139/214/141 137/170/141 135/169/141
f 64/71/142 61/69/142 138/215/142
f 119/216/143 133/172/143 118/171/143
f 40/73/144 64/71/144 138/217/144
f 139/218/145 135/175/145 130/174/145
f 122/219/146 136/220/146 121/221/146
f 117/222/147 132/223/147 116/176/147
f 42/45/148 38/41/148 40/43/148
f 107/224/149 123/225/149 106/226/149
f 45/49/150 43/46/150 42/47/150
f 47/51/151 44/48/151 45/49/151
f 49/53/152 46/50/152 47/51/152
f 51/55/153 48/52/153 49/53/153
f 115/227/154 129/228/154 113/229/154
f 54/59/155 52/56/155 51/57/155
f 98/230/156 114/231/156 112/232/156
f 57/63/157 55/60/157 54/61/157
f 59/65/158 56/62/158 57/63/158
f 61/67/159 58/64/159 59/65/159
f 125/233/160 137/234/160 124/235/160
f 64/71/161 62/68/161 61/69/161
f 40/73/162 63/70/162 64/71/162
f 123/236/163 136/237/163 122/238/163
f 38/41/164 65/74/164 39/42/164
f 41/44/165 67/76/165 38/41/165
f 43/46/166 68/77/166 41/44/166
f 44/48/167 69/78/167 43/46/167
f 46/50/168 70/79/168 44/48/168
f 48/52/169 71/80/169 46/50/169
f 50/54/170 72/81/170 48/52/170
f 52/56/171 73/82/171 50/54/171
f 53/58/172 74/83/172 52/56/172
f 55/60/173 75/84/173 53/58/173
f 56/62/174 76/85/174 55/60/174
f 58/64/175 77/86/175 56/62/175
f 60/66/176 78/87/176 58/64/176
f 62/68/177 79/88/177 60/66/177
f 63/70/178 80/89/178 62/68/178
f 39/72/179 66/90/179 63/70/179
f 65/74/180 81/91/180 66/75/180
f 67/76/181 83/93/181 65/74/181
f 68/77/182 84/94/182 67/76/182
f 69/78/183 85/95/183 68/77/183
f 70/79/184 86/96/184 69/78/184
f 71/80/185 87/97/185 70/79/185
f 72/81/186 88/98/186 71/80/186
f 73/82/187 89/99/187 72/81/187
f 74/83/188 90/100/188 73/82/188
f 75/84/189 91/101/189 74/83/189
f 76/85/190 92/102/190 75/84/190
f 77/86/191 93/103/191 76/85/191
f 78/87/192 94/104/192 77/86/192
f 79/88/193 95/105/193 78/87/193
f 80/89/194 96/106/194 79/88/194
f 66/90/195 82/107/195 80/89/195
f 81/91/196 97/108/196 82/92/196
f 83/93/197 99/110/197 81/91/197
f 84/94/198 100/111/198 83/93/198
f 85/95/199 101/112/199 84/94/199
f 86/96/200 102/113/200 85/95/200
f 87/97/201 103/114/201 86/96/201
f 88/98/202 104/115/202 87/97/202
f 89/99/203 105/116/203 88/98/203
f 90/100/204 106/117/204 89/99/204
f 91/101/205 107/118/205 90/100/205
f 92/102/206 108/119/206 91/101/206
f 93/103/207 109/120/207 92/102/207
f 94/104/208 110/121/208 93/103/208
f 95/105/209 111/122/209 94/104/209
f 96/106/210 112/123/210 95/105/210
f 82/107/211 98/124/211 96/106/211
f 97/108/212 113/125/212 98/109/212
f 99/110/213 115/127/213 97/108/213
f 100/111/214 116/128/214 99/110/214
f 101/112/215 117/129/215 100/111/215
f 102/113/216 118/130/216 101/112/216
f 103/114/217 119/131/217 102/113/217
f 104/115/218 120/132/218 103/114/218
f 105/116/219 121/133/219 104/115/219
