# Blender v2.93.4 OBJ File: ''
# www.blender.org
mtllib tree02trunk.mtl
o Tree_low
v 1.362119 -0.000000 0.593189
v 0.312242 0.000000 -0.851820
v -1.014293 5.981912 -0.851819
v -0.100025 5.465846 0.593190
v -1.386498 0.000000 -0.299864
v -2.493643 6.816923 -0.299863
v -1.386498 -0.000000 1.486265
v -2.493643 6.816923 1.486266
v 0.312242 -0.000000 2.038220
v -1.014293 5.981911 2.038221
v 0.505095 9.107914 0.014231
v 0.871417 8.591848 0.593190
v -0.087625 9.942903 0.235378
v -0.087625 9.942903 0.951026
v 0.505095 9.107914 1.172173
v 2.260962 11.637587 0.014231
v 2.871404 11.804515 0.593214
v 1.273252 11.367470 0.235379
v 1.273252 11.367470 0.951026
v 2.260962 11.637587 1.172174
v 1.515731 14.292227 -0.113174
v 2.026523 14.665885 0.593191
v 0.689252 13.687669 0.156639
v 0.689252 13.687669 1.029767
v 1.515731 14.292227 1.299579
vt 0.500000 1.000000
vt 0.024500 0.654500
vt 0.024500 0.654500
vt 0.500000 1.000000
vt 0.206100 0.095500
vt 0.206100 0.095500
vt 0.793900 0.095500
vt 0.793900 0.095500
vt 0.975500 0.654500
vt 0.975500 0.654500
vt 0.024500 0.654500
vt 0.500000 1.000000
vt 0.206100 0.095500
vt 0.793900 0.095500
vt 0.975500 0.654500
vt 0.024500 0.654500
vt 0.500000 1.000000
vt 0.206100 0.095500
vt 0.793900 0.095500
vt 0.975500 0.654500
vt 0.750000 0.000000
vt 0.950000 0.000000
vt 0.950000 1.000000
vt 0.750000 1.000000
vt 1.150000 0.000000
vt 1.150000 1.000000
vt 0.150000 0.000000
vt 0.350000 0.000000
vt 0.350000 1.000000
vt 0.150000 1.000000
vt 0.550000 0.000000
vt 0.550000 1.000000
vt 0.975500 0.654500
vt 0.793900 0.095500
vt 0.206100 0.095500
vt 0.024500 0.654500
vt 0.500000 1.000000
vn 0.7684 -0.2230 -0.5999
vn -0.1214 0.2890 -0.9496
vn -0.7925 0.6099 0.0000
vn -0.1214 0.2890 0.9496
vn 0.7684 -0.2230 0.5999
vn 0.6311 -0.4128 -0.6568
vn -0.2104 0.1658 -0.9635
vn -0.7231 0.6908 0.0000
vn -0.2104 0.1658 0.9635
vn 0.6311 -0.4128 0.6568
vn 0.7004 0.1860 -0.6891
vn -0.2157 -0.0979 -0.9715
vn -0.9698 -0.2441 0.0000
vn -0.2157 -0.0979 0.9715
vn 0.7004 0.1860 0.6891
vn 0.9704 0.2413 0.0095
vn 0.3723 0.0913 -0.9236
vn 0.0389 0.0219 -0.9990
vn 0.9704 0.2408 0.0177
vn -0.7798 -0.1266 -0.6131
vn -0.8990 -0.1536 -0.4102
vn -0.7824 -0.1372 0.6075
vn -0.9011 -0.1464 0.4081
vn 0.3861 0.1064 0.9163
vn 0.0625 0.0305 0.9976
vn -0.0000 -1.0000 -0.0000
usemtl wire_224086086
s off
f 4/1/1 3/2/1 11/3/1 12/4/1
f 3/2/2 6/5/2 13/6/2 11/3/2
f 6/5/3 8/7/3 14/8/3 13/6/3
f 8/7/4 10/9/4 15/10/4 14/8/4
f 10/9/5 4/1/5 12/4/5 15/10/5
f 12/4/6 11/3/6 16/11/6 17/12/6
f 11/3/7 13/6/7 18/13/7 16/11/7
f 13/6/8 14/8/8 19/14/8 18/13/8
f 14/8/9 15/10/9 20/15/9 19/14/9
f 15/10/10 12/4/10 17/12/10 20/15/10
f 17/12/11 16/11/11 21/16/11 22/17/11
f 16/11/12 18/13/12 23/18/12 21/16/12
f 18/13/13 19/14/13 24/19/13 23/18/13
f 19/14/14 20/15/14 25/20/14 24/19/14
f 20/15/15 17/12/15 22/17/15 25/20/15
s 1
f 1/21/16 2/22/17 3/23/18 4/24/19
f 2/22/17 5/25/20 6/26/21 3/23/18
f 5/27/20 7/28/22 8/29/23 6/30/21
f 7/28/22 9/31/24 10/32/25 8/29/23
f 9/31/24 1/21/16 4/24/19 10/32/25
f 9/33/26 7/34/26 5/35/26 2/36/26 1/37/26
