# Blender v2.93.4 OBJ File: ''
# www.blender.org
mtllib tree03trunk.mtl
o low_poly_tree
v 0.431027 0.000000 -0.615570
v 0.725867 0.000000 -0.194495
v 0.000000 0.000000 0.000000
v 0.431027 0.000000 -0.615570
v 0.234674 1.566548 -0.590710
v 0.559472 1.566547 -0.301664
v 0.725867 0.000000 -0.194495
v 0.079528 3.133095 -0.542933
v 0.409913 3.133095 -0.364791
v -0.042776 4.699642 -0.488931
v 0.281511 4.699642 -0.402039
v -0.145268 6.266190 -0.438393
v 0.170513 6.266190 -0.429205
v -0.242453 7.832737 -0.393075
v 0.066935 7.832737 -0.456958
v -0.347048 9.399284 -0.347046
v -0.042776 9.399284 -0.488930
v -0.467030 10.965833 -0.288067
v -0.172599 10.965833 -0.520873
v -0.065495 0.000000 -0.748613
v -0.065495 0.000000 -0.748613
v -0.199930 1.566548 -0.603355
v -0.288069 3.133095 -0.467030
v -0.347048 4.699642 -0.347047
v -0.393076 6.266190 -0.242452
v -0.438394 7.832737 -0.145267
v -0.488932 9.399284 -0.042774
v -0.542933 10.965833 0.079530
v -0.531372 0.000000 -0.531372
v -0.531372 0.000000 -0.531372
v -0.540985 1.566547 -0.333684
v -0.520875 3.133095 -0.172599
v -0.488932 4.699642 -0.042775
v -0.456959 6.266190 0.066936
v -0.429206 7.832737 0.170514
v -0.402039 9.399284 0.281512
v -0.364791 10.965833 0.409914
v -0.748613 0.000000 -0.065495
v -0.748613 0.000000 -0.065495
v -0.628907 1.566547 0.092122
v -0.509958 3.133095 0.202594
v -0.402039 4.699642 0.281512
v -0.307026 6.266190 0.345004
v -0.219187 7.832737 0.406510
v -0.127028 9.399284 0.474077
v -0.015960 10.965833 0.548496
v -0.615570 -0.000000 0.431027
v -0.615570 -0.000000 0.431027
v -0.422556 1.566547 0.474823
v -0.260426 3.133095 0.482991
v -0.127028 4.699642 0.474077
v -0.013432 6.266190 0.461641
v 0.093391 7.832737 0.452296
v 0.207421 9.399284 0.444817
v 0.340340 10.965833 0.430432
v -0.194495 -0.000000 0.725867
v -0.194495 -0.000000 0.725867
v -0.018487 1.566547 0.635349
v 0.110962 3.133095 0.537391
v 0.207421 4.699642 0.444816
v 0.286447 6.266190 0.362272
v 0.362271 7.832737 0.286448
v 0.444815 9.399284 0.207422
v 0.537390 10.965833 0.110964
v 0.317586 -0.000000 0.681066
v 0.317586 -0.000000 0.681066
v 0.394233 1.566547 0.498589
v 0.430430 3.133095 0.340340
v 0.444815 4.699642 0.207422
v 0.452294 6.266190 0.093392
v 0.461640 7.832737 -0.013431
v 0.474076 9.399284 -0.127027
v 0.482990 10.965833 -0.260424
v 0.681066 -0.000000 0.317586
v 0.681066 -0.000000 0.317586
v 0.622486 1.566547 0.128533
v 0.548495 3.133095 -0.015959
v 0.474076 4.699642 -0.127027
v 0.406508 6.266190 -0.219186
v 0.345003 7.832737 -0.307025
v 0.281511 9.399284 -0.402038
v 0.202593 10.965833 -0.509956
vt 0.116978 0.821394
vt 0.000000 0.500000
vt 0.500000 0.500000
vt 0.111111 0.000000
vt 0.111111 0.111111
vt 0.000000 0.111111
vt 0.000000 0.000000
vt 0.111111 0.222222
vt 0.000000 0.222222
vt 0.111111 0.333333
vt 0.000000 0.333333
vt 0.111111 0.444444
vt 0.000000 0.444444
vt 0.111111 0.555556
vt 0.000000 0.555556
vt 0.111111 0.666667
vt 0.000000 0.666667
vt 0.111111 0.777778
vt 0.000000 0.777778
vt 0.413176 0.992404
vt 0.222222 0.000000
vt 0.222222 0.111111
vt 0.222222 0.222222
vt 0.222222 0.333333
vt 0.222222 0.444444
vt 0.222222 0.555556
vt 0.222222 0.666667
vt 0.222222 0.777778
vt 0.750000 0.933013
vt 0.333333 0.000000
vt 0.333333 0.111111
vt 0.333333 0.222222
vt 0.333333 0.333333
vt 0.333333 0.444444
vt 0.333333 0.555556
vt 0.333333 0.666667
vt 0.333333 0.777778
vt 0.969846 0.671010
vt 0.444444 0.000000
vt 0.444444 0.111111
vt 0.444444 0.222222
vt 0.444444 0.333333
vt 0.444444 0.444444
vt 0.444444 0.555556
vt 0.444444 0.666667
vt 0.444444 0.777778
vt 0.969846 0.328990
vt 0.555556 0.000000
vt 0.555556 0.111111
vt 0.555556 0.222222
vt 0.555556 0.333333
vt 0.555556 0.444444
vt 0.555556 0.555556
vt 0.555556 0.666667
vt 0.555556 0.777778
vt 0.750000 0.066987
vt 0.666667 0.000000
vt 0.666667 0.111111
vt 0.666667 0.222222
vt 0.666667 0.333333
vt 0.666667 0.444444
vt 0.666667 0.555556
vt 0.666667 0.666667
vt 0.666667 0.777778
vt 0.413176 0.007596
vt 0.777778 0.000000
vt 0.777778 0.111111
vt 0.777778 0.222222
vt 0.777778 0.333333
vt 0.777778 0.444444
vt 0.777778 0.555556
vt 0.777778 0.666667
vt 0.777778 0.777778
vt 0.116978 0.178606
vt 0.888889 0.000000
vt 0.888889 0.111111
vt 0.888889 0.222222
vt 0.888889 0.333333
vt 0.888889 0.444444
vt 0.888889 0.555556
vt 0.888889 0.666667
vt 0.888889 0.777778
vt 1.000000 0.000000
vt 1.000000 0.111111
vt 1.000000 0.222222
vt 1.000000 0.333333
vt 1.000000 0.444444
vt 1.000000 0.555556
vt 1.000000 0.666667
vt 1.000000 0.777778
vn -0.0000 -1.0000 -0.0000
vn 0.7516 0.0698 -0.6559
vn 0.5798 0.0524 -0.8131
vn 0.3750 0.0350 -0.9264
vn 0.1484 0.0175 -0.9888
vn -0.0872 0.0000 -0.9962
vn -0.3179 -0.0175 -0.9480
vn -0.5302 -0.0350 -0.8472
vn 0.1542 0.0698 -0.9856
vn -0.0785 0.0524 -0.9955
vn -0.3082 0.0350 -0.9507
vn -0.5219 0.0175 -0.8528
vn -0.7071 0.0000 -0.7071
vn -0.8528 -0.0175 -0.5219
vn -0.9507 -0.0350 -0.3082
vn -0.5154 0.0698 -0.8541
vn -0.7001 0.0524 -0.7122
vn -0.8472 0.0350 -0.5302
vn -0.9480 0.0175 -0.3179
vn -0.9962 0.0000 -0.0872
vn -0.9888 -0.0175 0.1484
vn -0.9264 -0.0350 0.3750
vn -0.9438 0.0698 -0.3230
vn -0.9940 0.0524 -0.0956
vn -0.9898 0.0350 0.1384
vn -0.9305 0.0175 0.3658
vn -0.8192 -0.0000 0.5736
vn -0.6620 -0.0175 0.7493
vn -0.4686 -0.0350 0.8827
vn -0.9306 0.0698 0.3592
vn -0.8229 0.0524 0.5658
vn -0.6692 0.0350 0.7422
vn -0.4777 0.0175 0.8784
vn -0.2588 -0.0000 0.9659
vn -0.0255 -0.0175 0.9995
vn 0.2085 -0.0350 0.9774
vn -0.4820 0.0698 0.8734
vn -0.2667 0.0524 0.9623
vn -0.0356 0.0350 0.9988
vn 0.1987 0.0175 0.9799
vn 0.4226 -0.0000 0.9063
vn 0.6229 -0.0175 0.7821
vn 0.7880 -0.0350 0.6147
vn 0.1922 0.0698 0.9789
vn 0.4143 0.0524 0.9086
vn 0.6147 0.0350 0.7880
vn 0.7821 0.0175 0.6229
vn 0.9063 -0.0000 0.4226
vn 0.9799 -0.0175 0.1987
vn 0.9988 -0.0350 -0.0356
vn 0.7764 0.0698 0.6263
vn 0.9014 0.0524 0.4298
vn 0.9774 0.0350 0.2085
vn 0.9995 0.0175 -0.0255
vn 0.9659 0.0000 -0.2588
vn 0.8784 -0.0175 -0.4777
vn 0.7422 -0.0350 -0.6692
vn 0.9974 0.0698 -0.0193
vn 0.9668 0.0524 -0.2502
vn 0.8827 0.0350 -0.4686
vn 0.7493 0.0175 -0.6620
vn 0.5736 0.0000 -0.8192
vn 0.3658 -0.0175 -0.9305
vn 0.1384 -0.0350 -0.9898
usemtl Mat_1
s off
f 1/1/1 2/2/1 3/3/1
f 4/4/2 5/5/2 6/6/2 7/7/2
f 5/5/3 8/8/3 9/9/3 6/6/3
f 8/8/4 10/10/4 11/11/4 9/9/4
f 10/10/5 12/12/5 13/13/5 11/11/5
f 12/12/6 14/14/6 15/15/6 13/13/6
f 14/14/7 16/16/7 17/17/7 15/15/7
f 16/16/8 18/18/8 19/19/8 17/17/8
f 20/20/1 1/1/1 3/3/1
f 21/21/9 22/22/9 5/5/9 4/4/9
f 22/22/10 23/23/10 8/8/10 5/5/10
f 23/23/11 24/24/11 10/10/11 8/8/11
f 24/24/12 25/25/12 12/12/12 10/10/12
f 25/25/13 26/26/13 14/14/13 12/12/13
f 26/26/14 27/27/14 16/16/14 14/14/14
f 27/27/15 28/28/15 18/18/15 16/16/15
f 29/29/1 20/20/1 3/3/1
f 30/30/16 31/31/16 22/22/16 21/21/16
f 31/31/17 32/32/17 23/23/17 22/22/17
f 32/32/18 33/33/18 24/24/18 23/23/18
f 33/33/19 34/34/19 25/25/19 24/24/19
f 34/34/20 35/35/20 26/26/20 25/25/20
f 35/35/21 36/36/21 27/27/21 26/26/21
f 36/36/22 37/37/22 28/28/22 27/27/22
f 38/38/1 29/29/1 3/3/1
f 39/39/23 40/40/23 31/31/23 30/30/23
f 40/40/24 41/41/24 32/32/24 31/31/24
f 41/41/25 42/42/25 33/33/25 32/32/25
f 42/42/26 43/43/26 34/34/26 33/33/26
f 43/43/27 44/44/27 35/35/27 34/34/27
f 44/44/28 45/45/28 36/36/28 35/35/28
f 45/45/29 46/46/29 37/37/29 36/36/29
f 47/47/1 38/38/1 3/3/1
f 48/48/30 49/49/30 40/40/30 39/39/30
f 49/49/31 50/50/31 41/41/31 40/40/31
f 50/50/32 51/51/32 42/42/32 41/41/32
f 51/51/33 52/52/33 43/43/33 42/42/33
f 52/52/34 53/53/34 44/44/34 43/43/34
f 53/53/35 54/54/35 45/45/35 44/44/35
f 54/54/36 55/55/36 46/46/36 45/45/36
f 56/56/1 47/47/1 3/3/1
f 57/57/37 58/58/37 49/49/37 48/48/37
f 58/58/38 59/59/38 50/50/38 49/49/38
f 59/59/39 60/60/39 51/51/39 50/50/39
f 60/60/40 61/61/40 52/52/40 51/51/40
f 61/61/41 62/62/41 53/53/41 52/52/41
f 62/62/42 63/63/42 54/54/42 53/53/42
f 63/63/43 64/64/43 55/55/43 54/54/43
f 65/65/1 56/56/1 3/3/1
f 66/66/44 67/67/44 58/58/44 57/57/44
f 67/67/45 68/68/45 59/59/45 58/58/45
f 68/68/46 69/69/46 60/60/46 59/59/46
f 69/69/47 70/70/47 61/61/47 60/60/47
f 70/70/48 71/71/48 62/62/48 61/61/48
f 71/71/49 72/72/49 63/63/49 62/62/49
f 72/72/50 73/73/50 64/64/50 63/63/50
f 74/74/1 65/65/1 3/3/1
f 75/75/51 76/76/51 67/67/51 66/66/51
f 76/76/52 77/77/52 68/68/52 67/67/52
f 77/77/53 78/78/53 69/69/53 68/68/53
f 78/78/54 79/79/54 70/70/54 69/69/54
f 79/79/55 80/80/55 71/71/55 70/70/55
f 80/80/56 81/81/56 72/72/56 71/71/56
f 81/81/57 82/82/57 73/73/57 72/72/57
f 2/2/1 74/74/1 3/3/1
f 7/83/58 6/84/58 76/76/58 75/75/58
f 6/84/59 9/85/59 77/77/59 76/76/59
f 9/85/60 11/86/60 78/78/60 77/77/60
f 11/86/61 13/87/61 79/79/61 78/78/61
f 13/87/62 15/88/62 80/80/62 79/79/62
f 15/88/63 17/89/63 81/81/63 80/80/63
f 17/89/64 19/90/64 82/82/64 81/81/64
