# Blender v2.93.4 OBJ File: ''
# www.blender.org
mtllib tree01trunk.mtl
o Icosphere.002_Icosphere.005
v 1.857228 2.234761 0.884551
v 0.862068 2.417930 1.685017
v 0.988496 0.182339 2.073337
v 2.177520 0.178664 1.116900
v -0.407458 2.230902 1.550990
v -0.529065 0.174054 1.913376
v -1.741086 2.230902 -0.396907
v -1.406846 2.417930 -1.628961
v -1.723147 0.182339 -1.887284
v -2.122926 0.174055 -0.414610
v -0.300628 2.234761 -2.267200
v -0.401386 0.178678 -2.649858
v -1.476270 2.415427 0.852269
v -1.806124 0.179349 1.078098
v 0.974376 2.421988 -2.329658
v 1.122721 0.187200 -2.724709
v 1.923228 2.237145 -1.475203
v 2.256414 0.181523 -1.703325
v 2.376639 2.421987 -0.281543
v 2.798585 0.187199 -0.276946
v 0.757398 6.339355 -1.732194
v 1.423059 6.209686 -1.132756
v -1.147601 6.205300 -0.376293
v -0.913118 6.336510 -1.240613
v 1.376750 6.208000 0.522706
v 0.678609 6.336510 1.084264
v -0.137070 6.208002 -1.688374
v -0.212013 6.205300 0.990236
v 1.741139 6.339355 -0.295357
v -0.961825 6.334758 0.500052
v 0.694875 0.150584 1.075398
v 1.758814 0.153442 -0.306054
v 0.773769 0.153442 -1.744814
v -0.898973 0.150584 -1.252587
v -0.947745 0.148819 0.490422
v 0.276156 0.139415 -0.347543
vn 0.6261 0.1751 0.7598
vn -0.1152 0.1710 0.9785
vn -0.9539 0.1710 -0.2465
vn -0.4819 0.1751 -0.8586
vn -0.5297 0.1696 0.8311
vn -0.0606 0.1774 -0.9823
vn 0.6674 0.1799 -0.7227
vn 0.9151 0.1799 -0.3608
vn 0.8939 0.1774 0.4118
vn -0.9664 0.1696 0.1933
vn 0.6776 0.1474 -0.7205
vn -0.9603 0.1446 -0.2386
vn 0.6362 0.1459 0.7576
vn -0.4762 0.1459 -0.8672
vn -0.1249 0.1446 0.9816
vn 0.9168 0.1474 -0.3711
vn -0.9721 0.1442 0.1848
vn 0.8946 0.1466 0.4220
vn -0.0699 0.1466 -0.9867
vn -0.5239 0.1442 0.8395
vn 0.0022 -0.9995 0.0312
vn 0.0322 -0.9994 0.0082
vn 0.0197 -0.9994 -0.0274
vn -0.0181 -0.9995 -0.0265
vn -0.0289 -0.9995 0.0097
vn -0.0144 -0.9999 -0.0014
vn -0.0085 -1.0000 -0.0013
vn -0.0203 -0.9998 -0.0016
vn -0.0283 -0.9995 -0.0133
vn -0.0030 -0.9999 -0.0162
vn -0.0014 -0.9999 -0.0105
vn -0.0047 -0.9998 -0.0218
vn 0.0040 -0.9994 -0.0330
vn 0.0145 -0.9998 -0.0099
vn 0.0096 -0.9999 -0.0066
vn 0.0193 -0.9997 -0.0132
vn 0.0327 -0.9994 -0.0084
vn 0.0140 -0.9999 0.0087
vn 0.0093 -0.9999 0.0051
vn 0.0186 -0.9998 0.0122
vn 0.0182 -0.9995 0.0265
vn -0.0039 -0.9999 0.0139
vn -0.0019 -1.0000 0.0084
vn -0.0059 -0.9998 0.0195
vn -0.0195 -0.9995 0.0235
usemtl WOOD.005
s 1
f 1//1 2//1 3//1 4//1
f 2//2 5//2 6//2 3//2
f 7//3 8//3 9//3 10//3
f 8//4 11//4 12//4 9//4
f 5//5 13//5 14//5 6//5
f 11//6 15//6 16//6 12//6
f 15//7 17//7 18//7 16//7
f 17//8 19//8 20//8 18//8
f 19//9 1//9 4//9 20//9
f 13//10 7//10 10//10 14//10
f 17//11 15//11 21//11 22//11
f 8//12 7//12 23//12 24//12
f 2//13 1//13 25//13 26//13
f 11//14 8//14 24//14 27//14
f 5//15 2//15 26//15 28//15
f 19//16 17//16 22//16 29//16
f 7//17 13//17 30//17 23//17
f 1//18 19//18 29//18 25//18
f 15//19 11//19 27//19 21//19
f 13//20 5//20 28//20 30//20
usemtl WOODDARC.005
f 3//21 6//21 31//21
f 20//22 4//22 32//22
f 16//23 18//23 33//23
f 9//24 12//24 34//24
f 14//25 10//25 35//25
f 35//26 34//26 36//27
f 35//26 10//28 34//26
f 10//29 9//29 34//29
f 34//30 33//30 36//31
f 34//30 12//32 33//30
f 12//33 16//33 33//33
f 33//34 32//34 36//35
f 33//34 18//36 32//34
f 18//37 20//37 32//37
f 32//38 31//38 36//39
f 32//38 4//40 31//38
f 4//41 3//41 31//41
f 31//42 35//42 36//43
f 31//42 6//44 35//42
f 6//45 14//45 35//45
