# Blender v2.93.4 OBJ File: ''
# www.blender.org
mtllib tree01leaves.mtl
o Icosphere.002_Icosphere.005
v 5.262929 6.376497 -3.761725
v 2.398279 6.934540 -6.341394
v 0.617390 12.308538 -1.354316
v 1.105138 12.213523 -0.915090
v -4.790815 6.922290 -4.225910
v -5.799911 6.357636 -0.506264
v -0.778471 12.210310 -0.360802
v -0.606656 12.306445 -0.994116
v 2.059205 6.922274 5.779194
v 5.063639 6.369277 3.362555
v 1.071210 12.212298 0.297932
v 0.559648 12.306445 0.709393
v -1.451074 6.369281 -6.152825
v -0.038025 12.212298 -1.322205
v -1.773592 6.357634 5.374569
v -0.092934 12.210310 0.640496
v 6.631777 6.934538 -0.157958
v 1.338199 12.308538 -0.301493
v -5.000405 6.914742 3.265077
v -0.642349 12.305166 0.281323
v -3.051178 22.610439 -0.413114
v -2.617299 22.912766 1.633487
v -0.233429 28.804832 0.001379
v -0.303683 28.755877 -0.330042
v 0.050142 28.755877 0.186761
v 0.386964 28.805492 0.222310
v 0.650989 28.756903 0.009941
v 0.788797 28.806572 -0.299433
v 0.668507 28.757534 -0.616129
v 0.416756 28.806572 -0.842828
v 0.078486 28.756903 -0.826259
v -0.215016 28.805492 -0.656920
v 2.844182 22.616747 1.686395
v 3.695160 22.923498 -0.224097
v 1.397758 22.923498 -3.579669
v -0.691187 22.616747 -3.477345
v -0.866203 22.610439 2.778255
v 2.952330 22.620659 -2.179765
v -2.503555 22.916847 -2.431660
v 1.213746 22.916847 2.997830
v 1.869648 13.006559 5.169353
v 4.571650 12.509223 2.995983
v 1.036847 21.717379 0.291837
v 0.538035 21.809195 0.693065
v -4.290818 13.006563 -3.828605
v -5.198339 12.498755 -0.483398
v -0.766789 21.715443 -0.350486
v -0.599240 21.809195 -0.968047
v 4.750868 12.515720 -3.411150
v 2.174583 13.017588 -5.731128
v 0.594328 21.811222 -1.319264
v 1.069932 21.718576 -0.890970
v -4.479308 12.999779 2.908303
v -1.577331 12.498753 4.805452
v -0.098308 21.715443 0.625880
v -0.634038 21.807943 0.275650
v -1.287267 12.509227 -5.561538
v -0.044768 21.717379 -1.287957
v 5.981921 13.017586 -0.170139
v 1.297197 21.811222 -0.292652
v 0.757398 6.339355 -1.732194
v 1.423059 6.209686 -1.132756
v -1.147601 6.205300 -0.376293
v -0.913118 6.336510 -1.240613
v 1.376750 6.208000 0.522706
v 0.678609 6.336510 1.084264
v -0.137070 6.208002 -1.688374
v -0.212013 6.205300 0.990236
v 1.741139 6.339355 -0.295357
v -0.961825 6.334758 0.500052
v -0.779907 12.329244 -0.359814
v -0.608091 12.425379 -0.993141
v 1.069761 12.331219 0.298906
v 0.558213 12.425379 0.710381
v -0.039460 12.331219 -1.321217
v -0.094370 12.329244 0.641484
v 1.103702 12.332444 -0.914102
v 1.336763 12.427460 -0.300505
v -0.643785 12.424088 0.282311
v 0.615954 12.427460 -1.353328
v -0.639873 22.099009 -0.997985
v -0.059138 22.002859 -1.333041
v 0.551245 22.099009 0.741771
v -0.115220 22.000832 0.671412
v 1.108325 22.004112 -0.917273
v 1.346352 22.101143 -0.290623
v -0.676317 22.097704 0.304600
v -0.815350 22.000832 -0.351184
v 1.073673 22.002859 0.321551
v 0.610212 22.101143 -1.365837
vn 0.5740 0.6511 -0.4966
vn -0.7534 0.6490 -0.1059
vn 0.5453 0.6501 0.5292
vn -0.2961 0.6501 -0.6998
vn -0.1738 0.6490 0.7407
vn 0.6706 0.6511 -0.3555
vn -0.7581 0.6489 0.0649
vn 0.6496 0.6504 0.3938
vn -0.1321 0.6504 -0.7480
vn -0.3347 0.6489 0.6833
vn -0.9055 0.4031 0.1324
vn -0.0014 1.0000 0.0010
vn 0.8092 0.4052 0.4255
vn -0.1040 0.4052 -0.9083
vn -0.4510 0.4031 0.7963
vn 0.6539 0.4060 -0.6384
vn -0.8967 0.4034 -0.1820
vn 0.6172 0.4047 0.6747
vn -0.4058 0.4047 -0.8195
vn -0.1546 0.4034 0.9019
vn 0.8317 0.4060 -0.3788
vn 0.6126 0.4299 0.6632
vn -0.8863 0.4287 -0.1754
vn 0.6487 0.4312 -0.6271
vn -0.4415 0.4284 0.7884
vn -0.1071 0.4304 -0.8963
vn 0.7968 0.4304 0.4240
vn -0.8947 0.4284 0.1264
vn 0.8193 0.4312 -0.3780
vn -0.1571 0.4287 0.8897
vn -0.3967 0.4299 -0.8110
vn -0.9647 -0.0095 -0.2632
vn 0.6269 0.0012 0.7791
vn -0.4996 0.0011 -0.8662
vn -0.1036 -0.0095 0.9946
vn 0.9340 0.0142 -0.3570
vn -0.9778 -0.0135 0.2093
vn 0.9130 0.0077 0.4079
vn -0.0501 0.0077 -0.9987
vn -0.5488 -0.0136 0.8359
vn 0.6706 0.0143 -0.7416
vn -0.5130 -0.1590 -0.8435
vn -0.0800 -0.1617 0.9836
vn 0.9312 -0.1556 -0.3296
vn -0.9600 -0.1628 0.2276
vn 0.9113 -0.1572 0.3807
vn -0.0253 -0.1572 -0.9872
vn -0.5594 -0.1628 0.8127
vn 0.6441 -0.1556 -0.7489
vn -0.9459 -0.1617 -0.2812
vn 0.6009 -0.1590 0.7834
vn -0.1565 -0.9874 -0.0214
vn -0.0587 -0.9872 -0.1484
vn -0.0279 -0.9871 -0.1574
vn -0.0668 -0.9875 0.1429
vn -0.1574 -0.9875 0.0106
vn 0.1367 -0.9871 0.0830
vn 0.1171 -0.9872 0.1084
vn -0.0366 -0.9874 0.1536
vn 0.1230 -0.9870 -0.1037
vn 0.1412 -0.9870 -0.0772
vn -0.0632 -0.9871 0.1473
vn -0.1602 -0.9871 0.0057
vn 0.1360 -0.9867 0.0886
vn 0.1224 -0.9868 0.1063
vn -0.0422 -0.9871 0.1548
vn 0.1282 -0.9866 -0.1013
vn 0.1408 -0.9866 -0.0829
vn -0.1595 -0.9871 -0.0166
vn -0.0549 -0.9868 -0.1525
vn -0.0334 -0.9867 -0.1589
vn 0.1063 -0.9444 0.3111
vn 0.3298 -0.9438 0.0209
vn -0.2630 -0.9448 0.1953
vn 0.3306 -0.9438 -0.0043
vn 0.1236 -0.9438 -0.3066
vn -0.2772 -0.9448 0.1746
vn 0.0999 -0.9438 -0.3151
vn -0.2516 -0.9444 -0.2116
vn 0.0821 -0.9444 0.3182
vn -0.2670 -0.9444 -0.1917
usemtl PLANT.005
s 1
f 1//1 2//1 3//1 4//1
f 5//2 6//2 7//2 8//2
f 9//3 10//3 11//3 12//3
f 13//4 5//4 8//4 14//4
f 15//5 9//5 12//5 16//5
f 17//6 1//6 4//6 18//6
f 6//7 19//7 20//7 7//7
f 10//8 17//8 18//8 11//8
f 2//9 13//9 14//9 3//9
f 19//10 15//10 16//10 20//10
f 21//11 22//11 23//11 24//11
f 25//12 26//12 27//12 28//12 29//12 30//12 31//12 32//12 24//12 23//12
f 33//13 34//13 28//13 27//13
f 35//14 36//14 31//14 30//14
f 22//15 37//15 25//15 23//15
f 38//16 35//16 30//16 29//16
f 39//17 21//17 24//17 32//17
f 40//18 33//18 27//18 26//18
f 36//19 39//19 32//19 31//19
f 37//20 40//20 26//20 25//20
f 34//21 38//21 29//21 28//21
f 41//22 42//22 43//22 44//22
f 45//23 46//23 47//23 48//23
f 49//24 50//24 51//24 52//24
f 53//25 54//25 55//25 56//25
f 50//26 57//26 58//26 51//26
f 42//27 59//27 60//27 43//27
f 46//28 53//28 56//28 47//28
f 59//29 49//29 52//29 60//29
f 54//30 41//30 44//30 55//30
f 57//31 45//31 48//31 58//31
usemtl WOOD.005
f 8//32 7//32 71//32 72//32
f 12//33 11//33 73//33 74//33
f 14//34 8//34 72//34 75//34
f 16//35 12//35 74//35 76//35
f 18//36 4//36 77//36 78//36
f 7//37 20//37 79//37 71//37
f 11//38 18//38 78//38 73//38
f 3//39 14//39 75//39 80//39
f 20//40 16//40 76//40 79//40
f 4//41 3//41 80//41 77//41
f 58//42 48//42 81//42 82//42
f 55//43 44//43 83//43 84//43
f 60//44 52//44 85//44 86//44
f 47//45 56//45 87//45 88//45
f 43//46 60//46 86//46 89//46
f 51//47 58//47 82//47 90//47
f 56//48 55//48 84//48 87//48
f 52//49 51//49 90//49 85//49
f 48//50 47//50 88//50 81//50
f 44//51 43//51 89//51 83//51
usemtl PLANTDARC.005
f 70//52 68//52 15//52 19//52
f 62//53 61//53 2//53 1//53
f 64//54 63//54 6//54 5//54
f 66//55 65//55 10//55 9//55
f 67//56 64//56 5//56 13//56
f 68//57 66//57 9//57 15//57
f 69//58 62//58 1//58 17//58
f 63//59 70//59 19//59 6//59
f 65//60 69//60 17//60 10//60
f 61//61 67//61 13//61 2//61
f 74//62 73//62 42//62 41//62
f 75//63 72//63 45//63 57//63
f 76//64 74//64 41//64 54//64
f 78//65 77//65 49//65 59//65
f 71//66 79//66 53//66 46//66
f 73//67 78//67 59//67 42//67
f 80//68 75//68 57//68 50//68
f 79//69 76//69 54//69 53//69
f 77//70 80//70 50//70 49//70
f 72//71 71//71 46//71 45//71
f 84//72 83//72 40//72 37//72
f 86//73 85//73 38//73 34//73
f 88//74 87//74 22//74 21//74
f 89//75 86//75 34//75 33//75
f 90//76 82//76 36//76 35//76
f 87//77 84//77 37//77 22//77
f 85//78 90//78 35//78 38//78
f 81//79 88//79 21//79 39//79
f 83//80 89//80 33//80 40//80
f 82//81 81//81 39//81 36//81
